<?xml version="1.0" standalone="no"?>
<!DOCTYPE svg PUBLIC "-//W3C//DTD SVG 20010904//EN"
 "http://www.w3.org/TR/2001/REC-SVG-20010904/DTD/svg10.dtd">
<svg version="1.0" xmlns="http://www.w3.org/2000/svg"
 width="626.000000pt" height="626.000000pt" viewBox="0 0 626.000000 626.000000"
 preserveAspectRatio="xMidYMid meet">

<g transform="translate(0.000000,626.000000) scale(0.100000,-0.100000)"
fill="#000000" stroke="none">
<path d="M2880 5145 c-173 -38 -319 -116 -442 -233 -97 -93 -154 -170 -208
-283 -67 -141 -83 -219 -83 -399 0 -127 4 -169 22 -235 42 -157 119 -291 240
-417 76 -80 95 -91 105 -60 4 11 17 29 30 41 l23 22 -64 62 c-124 118 -207
278 -238 452 -19 110 -19 160 0 270 32 181 115 336 247 461 92 87 185 143 309
186 89 31 101 32 244 33 172 0 231 -12 363 -75 258 -123 424 -356 462 -652 11
-81 9 -121 -13 -279 -1 -9 19 -32 45 -52 l47 -36 18 77 c26 112 24 309 -5 425
-80 324 -332 585 -652 678 -98 28 -351 36 -450 14z"/>
<path d="M3850 3967 c0 -33 -76 -120 -169 -193 -106 -84 -148 -136 -158 -196
l-6 -38 -71 0 c-90 0 -177 -22 -239 -60 -41 -26 -52 -28 -70 -18 -12 6 -53 11
-91 11 -72 -1 -126 15 -266 81 -76 36 -147 36 -190 0 -33 -29 -60 -73 -60
-100 0 -19 105 -164 119 -164 5 0 11 6 13 12 3 8 19 1 45 -20 54 -42 74 -41
108 8 31 44 40 47 73 24 20 -14 22 -24 22 -102 0 -104 14 -134 87 -182 62 -43
111 -88 128 -121 11 -19 25 -28 55 -33 82 -13 36 -21 -103 -18 -158 4 -242
-10 -325 -52 -94 -48 -133 -121 -95 -177 77 -111 284 -431 281 -433 -2 -2 -32
-11 -68 -21 -36 -9 -90 -30 -120 -45 -45 -22 -79 -30 -185 -40 -71 -6 -164
-18 -205 -25 -64 -11 60 -13 825 -13 517 0 881 4 855 9 -25 4 -103 15 -173 23
-71 8 -132 17 -135 21 -4 4 -16 48 -27 98 -19 86 -22 92 -45 91 -14 -1 -87 -7
-163 -14 -76 -7 -140 -10 -143 -8 -2 3 35 96 82 209 47 112 91 220 97 239 14
51 1 103 -38 152 -54 66 -64 98 -75 230 -6 67 -12 124 -15 126 -9 10 -50 -19
-70 -48 -11 -17 -23 -30 -27 -30 -16 0 -7 30 19 60 32 39 80 70 202 130 l93
47 98 188 c89 172 101 190 136 207 87 41 110 113 55 169 -31 30 -61 38 -61 16z
m-715 -1421 c77 -1 160 2 185 6 l45 8 -42 -20 c-22 -11 -70 -27 -105 -36 -34
-9 -66 -21 -70 -27 -15 -24 -30 -186 -26 -269 5 -74 3 -88 -9 -88 -10 0 -14 7
-10 20 3 12 -22 74 -65 162 -73 149 -128 266 -128 272 0 2 19 -3 43 -12 30
-12 80 -16 182 -16z m491 -377 c14 -16 16 -23 6 -26 -7 -3 -19 -11 -27 -20
-12 -12 -36 -13 -135 -7 -66 4 -119 9 -116 11 3 3 200 52 247 62 3 0 14 -9 25
-20z"/>
<path d="M2968 1890 l32 -20 0 -284 c0 -297 0 -298 -45 -309 -11 -2 48 -5 131
-6 163 -1 208 -10 221 -45 7 -21 10 -19 29 21 l21 43 -123 0 -124 0 0 310 0
310 -87 0 -88 0 33 -20z"/>
<path d="M1863 1759 c-43 -13 -42 -23 1 -15 44 8 78 -19 111 -91 23 -50 23
-53 6 -62 -28 -15 -69 -81 -91 -146 -29 -84 -61 -129 -112 -153 -42 -21 -42
-21 -13 -22 46 0 93 16 128 46 33 28 162 94 184 94 7 0 22 -19 34 -42 12 -24
33 -55 47 -70 22 -24 34 -28 81 -28 64 0 101 8 101 22 0 5 -5 6 -11 3 -5 -4
-24 -1 -41 6 -26 11 -44 41 -135 226 -84 172 -110 216 -133 228 -32 17 -107
18 -157 4z m167 -209 c0 -6 11 -32 24 -60 l24 -49 -65 -31 c-36 -16 -67 -30
-68 -30 -4 0 29 91 52 143 15 35 33 50 33 27z"/>
<path d="M2375 1755 c-2 -5 -5 -21 -8 -35 -2 -14 -8 -34 -12 -45 -6 -15 -1
-13 20 9 36 37 83 56 140 56 l45 0 0 -220 0 -221 -32 -14 c-31 -13 -25 -14 87
-13 66 0 111 3 100 5 -44 11 -45 15 -45 244 l0 219 48 0 c56 0 92 -17 109 -50
12 -23 13 -24 13 -4 0 12 3 34 6 50 l5 29 -237 0 c-149 0 -238 -4 -239 -10z"/>
<path d="M3543 1759 c-41 -12 -43 -23 -4 -14 44 9 67 -9 102 -76 l30 -61 -38
-41 c-21 -23 -44 -55 -50 -72 -56 -150 -71 -173 -138 -208 l-30 -16 33 -1 c41
0 95 22 135 56 36 30 143 84 168 84 9 0 26 -21 39 -51 34 -71 60 -89 129 -89
64 0 101 8 101 22 0 5 -9 6 -20 3 -49 -15 -88 41 -196 279 -33 72 -73 145 -90
163 -28 30 -37 33 -85 32 -30 0 -69 -5 -86 -10z m180 -254 c30 -62 33 -75 15
-75 -7 0 -37 -11 -66 -25 l-53 -25 7 23 c15 51 59 157 64 157 3 0 18 -25 33
-55z"/>
<path d="M4227 1759 c-113 -27 -169 -107 -134 -192 19 -44 69 -72 147 -82 155
-19 202 -63 154 -145 -50 -83 -193 -78 -267 9 l-27 33 0 -56 0 -55 36 -7 c50
-9 220 2 268 18 92 29 137 118 99 195 -24 50 -63 71 -159 84 -43 6 -92 18
-108 27 -58 34 -55 100 7 146 22 16 42 21 87 20 68 -1 101 -19 120 -63 18 -46
25 -38 22 24 l-4 55 -101 -1 c-56 -1 -119 -5 -140 -10z"/>
<path d="M1985 1044 c-11 -2 -44 -9 -73 -15 -49 -10 -85 -40 -63 -53 22 -14
62 -25 56 -16 -3 6 -13 10 -21 10 -8 0 -14 7 -14 15 0 43 258 62 298 22 36
-37 -28 -75 -126 -76 l-53 -1 21 30 c18 25 19 30 6 30 -19 0 -64 -66 -68 -99
-4 -34 18 -37 25 -4 5 28 7 28 80 29 55 0 82 5 108 20 44 26 46 61 4 85 -30
17 -142 32 -180 23z"/>
<path d="M3351 981 c-7 -5 -9 -11 -4 -14 6 -4 19 0 29 8 15 11 16 14 4 15 -8
0 -21 -4 -29 -9z"/>
<path d="M2331 935 c-32 -23 -35 -23 -47 -7 -12 16 -13 15 -14 -5 0 -12 -3
-28 -6 -37 -9 -23 19 -20 42 5 30 33 51 41 73 27 16 -10 35 -10 91 0 92 16
108 16 92 0 -17 -17 -15 -45 4 -52 28 -11 60 -6 177 24 64 17 121 30 127 30 6
0 4 -11 -6 -25 -21 -31 -1 -34 36 -5 32 25 40 25 40 0 0 -11 2 -20 5 -20 3 0
23 9 45 20 51 26 60 25 60 -5 0 -32 9 -31 106 4 85 31 164 45 164 30 0 -5 -8
-22 -17 -36 -17 -26 -17 -26 7 -20 14 3 50 15 80 26 30 11 84 23 118 27 63 7
64 7 51 -14 -23 -37 1 -47 49 -23 49 25 52 25 52 6 0 -21 27 -19 117 9 43 13
99 27 126 31 50 7 56 1 37 -36 -14 -26 6 -25 40 1 32 25 40 25 40 0 0 -11 2
-20 5 -20 3 0 23 9 45 20 46 23 64 25 57 7 -3 -8 -1 -20 3 -27 7 -11 26 -8
102 18 51 17 112 33 135 34 24 2 43 6 43 11 0 16 -85 5 -171 -22 -67 -22 -89
-26 -85 -15 3 8 9 21 12 29 8 20 -25 20 -73 0 -33 -14 -37 -14 -48 2 -11 14
-17 15 -39 5 -18 -8 -27 -8 -32 0 -11 17 -140 2 -221 -26 -70 -24 -96 -21 -53
6 11 7 20 17 20 21 0 12 -43 1 -94 -24 -40 -19 -59 -18 -38 3 7 7 12 16 12 20
0 11 -103 1 -188 -18 -35 -8 -65 -14 -67 -14 -1 0 -2 8 -1 18 2 30 -85 27
-184 -7 -47 -16 -86 -28 -88 -26 -2 2 2 13 8 25 6 12 9 24 5 28 -5 6 -61 -7
-97 -23 -13 -5 -18 -3 -18 9 0 17 -27 21 -49 7 -9 -6 -21 -5 -32 2 -14 8 -43
4 -131 -20 -137 -38 -183 -44 -183 -23 0 11 9 14 33 12 26 -3 32 0 32 16 0 28
-72 36 -161 17 -73 -16 -89 -14 -89 11 0 20 -20 17 -59 -11z"/>
</g>
</svg>
